# xmcd
# Track frame offsets:
# 150
# 18597
# 32582
# 47772
#
# Disc length: 862 seconds
# Revision: 0
# Processed by: cddbd v1.4PL0 Copyright (c) Steve Scherf et al.
# Submitted via: VisiTrax 2.9.5.180 - For more info visit www.synapsa.com
#
DISCID=29035c04
DTITLE=Gail Starr - Adventure In Progress
DYEAR=1999
DGENRE=Cowboy
TTITLE0=Night Rider's Lament
TTITLE1=Tumbleweed Heart
TTITLE2=Boots And Saddles
TTITLE3=Going Back to Texas
EXTD=
EXTT0=
EXTT1=
EXTT2=
EXTT3=
PLAYORDER=
